<?xml version="1.0" encoding="UTF-8" standalone="no"?>
<!-- Created with Inkscape (http://www.inkscape.org/) -->

<svg
   width="170.14235"
   height="23.817738"
   viewBox="0 0 45.016828 6.3017766"
   version="1.1"
   id="svg1"
   xmlns="http://www.w3.org/2000/svg"
   xmlns:svg="http://www.w3.org/2000/svg">
  <defs
     id="defs1" />
  <g
     id="layer1"
     transform="translate(-0.07124742,-0.04848894)">
    <g
       id="g55"
       transform="matrix(0.26458333,0,0,0.26458333,-72.705553,-36.141462)">
		<g
   id="g51">
			<path
   style="fill:#1d262d"
   d="m 365.459,151.465 c -1.026,-1.412 -2.132,-2.748 -3.368,-3.955 -1.248,-1.194 -2.577,-2.291 -3.993,-3.266 -1.432,-0.953 -2.93,-1.795 -4.468,-2.552 -1.555,-0.725 -3.152,-1.355 -4.784,-1.886 -6.545,-2.035 -13.581,-2.538 -20.496,-1.715 -3.457,0.425 -6.862,1.207 -10.22,2.13 -3.349,0.965 -6.648,2.095 -9.94,3.253 -3.298,1.139 -6.597,2.297 -9.937,3.358 -3.337,1.067 -6.71,2.067 -10.15,2.829 l 0.213,-1.484 c 2.174,1.193 4.452,2.208 6.819,2.971 2.357,0.793 4.797,1.357 7.272,1.686 2.476,0.314 4.984,0.464 7.493,0.336 2.507,-0.125 5.014,-0.454 7.483,-1.027 0.04,-0.009 0.081,0.016 0.09,0.056 0.009,0.038 -0.013,0.076 -0.049,0.088 -2.406,0.824 -4.915,1.391 -7.462,1.668 -2.545,0.275 -5.129,0.335 -7.692,0.079 -2.563,-0.241 -5.107,-0.728 -7.586,-1.457 -2.468,-0.759 -4.879,-1.738 -7.145,-2.996 -0.388,-0.215 -0.527,-0.704 -0.312,-1.091 0.115,-0.207 0.312,-0.344 0.525,-0.393 3.377,-0.767 6.733,-1.662 10.071,-2.652 l 10.015,-3.053 c 6.716,-1.956 13.507,-3.755 20.439,-4.807 1.734,-0.256 3.476,-0.478 5.229,-0.632 1.754,-0.135 3.518,-0.195 5.285,-0.163 1.768,0.043 3.534,0.196 5.291,0.472 1.748,0.316 3.48,0.73 5.168,1.289 3.368,1.129 6.595,2.737 9.416,4.902 1.398,1.095 2.721,2.283 3.899,3.605 1.143,1.352 2.18,2.787 3.018,4.33 0.02,0.036 0.006,0.082 -0.03,0.102 -0.029,0.017 -0.072,0.005 -0.094,-0.025 z"
   id="path50" />

		</g>

		<g
   id="g52">
			<path
   style="fill:#1d262d"
   d="m 312.606,149.701 c -3.157,-0.197 -6.23,0.534 -9.218,1.454 -2.98,0.956 -5.978,2.046 -9.062,2.834 -3.077,0.802 -6.195,1.464 -9.351,1.868 -3.154,0.418 -6.332,0.604 -9.503,0.674 l 0.124,-0.734 c 6.025,2.646 12.646,3.985 19.223,3.947 3.29,-0.002 6.568,-0.305 9.796,-0.844 3.224,-0.571 6.392,-1.389 9.505,-2.442 6.216,-2.109 12.304,-4.793 18.761,-6.57 3.223,-0.877 6.519,-1.567 9.867,-1.782 3.34,-0.226 6.729,0.004 9.94,0.881 0.04,0.011 0.064,0.052 0.053,0.092 -0.01,0.037 -0.048,0.06 -0.085,0.054 -3.265,-0.54 -6.572,-0.516 -9.819,-0.115 -3.246,0.441 -6.44,1.197 -9.57,2.18 -6.252,1.989 -12.298,4.721 -18.686,6.687 -3.185,0.991 -6.453,1.813 -9.776,2.252 -3.319,0.46 -6.676,0.551 -10.005,0.384 -6.667,-0.338 -13.212,-1.765 -19.488,-4.017 -0.196,-0.07 -0.298,-0.287 -0.228,-0.483 0.052,-0.144 0.182,-0.238 0.326,-0.249 l 0.026,-0.002 c 3.138,-0.244 6.257,-0.653 9.351,-1.176 3.094,-0.517 6.175,-1.108 9.224,-1.849 3.056,-0.715 6.04,-1.679 9.133,-2.462 3.066,-0.789 6.329,-1.291 9.48,-0.731 0.041,0.007 0.068,0.046 0.061,0.087 -0.007,0.038 -0.042,0.064 -0.079,0.062 z"
   id="path51" />

		</g>

		<g
   id="g53">
			<path
   style="fill:#1d262d"
   d="m 354.679,151.387 c 0.839,-1.543 1.875,-2.978 3.018,-4.33 1.178,-1.322 2.501,-2.51 3.899,-3.605 2.821,-2.165 6.048,-3.773 9.416,-4.902 1.688,-0.559 3.42,-0.973 5.168,-1.289 1.758,-0.275 3.524,-0.429 5.291,-0.472 1.767,-0.031 3.531,0.028 5.285,0.163 1.753,0.154 3.495,0.377 5.229,0.632 6.932,1.052 13.723,2.85 20.439,4.807 l 10.015,3.053 c 3.338,0.99 6.695,1.885 10.071,2.652 0.432,0.098 0.704,0.527 0.607,0.96 -0.052,0.231 -0.202,0.418 -0.393,0.525 -2.265,1.258 -4.676,2.237 -7.145,2.996 -2.479,0.73 -5.024,1.216 -7.586,1.457 -2.562,0.256 -5.146,0.196 -7.692,-0.079 -2.547,-0.277 -5.056,-0.844 -7.461,-1.668 -0.039,-0.013 -0.06,-0.056 -0.047,-0.095 0.013,-0.037 0.051,-0.057 0.088,-0.049 2.469,0.573 4.975,0.902 7.483,1.027 2.509,0.128 5.018,-0.022 7.493,-0.336 2.475,-0.329 4.915,-0.893 7.272,-1.686 2.368,-0.762 4.646,-1.778 6.819,-2.971 l 0.213,1.484 c -3.441,-0.762 -6.813,-1.763 -10.15,-2.829 -3.34,-1.061 -6.638,-2.218 -9.937,-3.358 -3.292,-1.158 -6.59,-2.288 -9.94,-3.252 -3.358,-0.924 -6.763,-1.706 -10.22,-2.13 -6.915,-0.822 -13.952,-0.319 -20.496,1.715 -1.631,0.531 -3.228,1.16 -4.784,1.886 -1.539,0.757 -3.036,1.599 -4.468,2.552 -1.416,0.975 -2.745,2.072 -3.993,3.266 -1.237,1.207 -2.342,2.543 -3.368,3.955 -0.024,0.034 -0.07,0.043 -0.104,0.019 -0.03,-0.022 -0.039,-0.065 -0.022,-0.098 z"
   id="path52" />

		</g>

		<g
   id="g54">
			<path
   style="fill:#1d262d"
   d="m 407.642,149.552 c 3.151,-0.56 6.414,-0.058 9.48,0.731 3.093,0.783 6.077,1.747 9.133,2.462 3.049,0.741 6.13,1.332 9.224,1.849 3.094,0.523 6.212,0.932 9.351,1.176 l 0.026,0.002 c 0.208,0.016 0.364,0.198 0.347,0.406 -0.012,0.153 -0.113,0.277 -0.249,0.326 -6.275,2.252 -12.821,3.679 -19.488,4.017 -3.329,0.166 -6.687,0.076 -10.005,-0.384 -3.323,-0.439 -6.591,-1.261 -9.776,-2.252 -6.388,-1.966 -12.434,-4.698 -18.686,-6.687 -3.129,-0.984 -6.324,-1.739 -9.57,-2.18 -3.247,-0.401 -6.554,-0.425 -9.819,0.115 -0.041,0.007 -0.08,-0.02 -0.087,-0.061 -0.007,-0.038 0.018,-0.075 0.054,-0.085 3.212,-0.877 6.6,-1.107 9.94,-0.881 3.348,0.215 6.645,0.905 9.867,1.782 6.457,1.777 12.545,4.461 18.761,6.57 3.113,1.054 6.281,1.871 9.505,2.442 3.228,0.538 6.506,0.842 9.796,0.844 6.577,0.038 13.198,-1.301 19.223,-3.947 l 0.125,0.734 c -3.171,-0.069 -6.349,-0.256 -9.503,-0.674 -3.156,-0.405 -6.274,-1.067 -9.351,-1.868 -3.084,-0.787 -6.082,-1.878 -9.062,-2.834 -2.988,-0.92 -6.06,-1.651 -9.218,-1.454 -0.041,0.003 -0.077,-0.028 -0.08,-0.07 -0.003,-0.039 0.025,-0.072 0.062,-0.079 z"
   id="path53" />

		</g>

	</g>
  </g>
</svg>
