<?xml version="1.0" encoding="UTF-8" standalone="no"?>
<!-- Created with Inkscape (http://www.inkscape.org/) -->

<svg
   width="496.77734"
   height="220.73633"
   viewBox="0 0 496.77734 220.73633"
   version="1.1"
   id="svg1"
   xmlns="http://www.w3.org/2000/svg"
   xmlns:svg="http://www.w3.org/2000/svg">
  <defs
     id="defs1" />
  <path
     id="path1"
     style="fill:#000000;stroke-width:0.640574"
     d="m 286.69336,0 c -18.282,0 -33,14.717999 -33,33 v 152.57813 c 0,18.282 14.718,33 33,33 h 177.08398 c 18.282,0 33,-14.718 33,-33 V 33 c 0,-18.282001 -14.718,-33 -33,-33 z M 33,2.1582031 c -18.282,0 -33,14.7179989 -33,33.0000009 V 187.73633 c 0,18.282 14.718,33 33,33 h 177.08399 c 18.282,0 32.99999,-14.718 33,-33 V 35.158204 c 0,-18.282002 -14.718,-33.0000009 -33,-33.0000009 z M 292.66406,12.414063 h 159.23243 c 16.43885,0 29.67187,13.234968 29.67187,29.673828 V 174.16211 c 0,16.43885 -13.23301,29.67188 -29.67187,29.67188 H 292.66406 c -16.43886,0 -29.67187,-13.23303 -29.67187,-29.67188 V 42.087891 c 0,-16.43886 13.23301,-29.673828 29.67187,-29.673828 z M 38.970703,14.572266 H 198.20313 c 16.43886,0 29.67187,13.234972 29.67187,29.673828 V 176.32032 c 0,16.43885 -13.23301,29.67187 -29.67187,29.67187 H 38.970703 c -16.438856,0 -29.6718746,-13.23302 -29.6718746,-29.67187 V 44.246094 c 0,-16.438856 13.2330186,-29.673828 29.6718746,-29.673828 z m 58.556636,43.224609 -44.632808,46.820315 -0.07227,-0.0723 -7.783203,7.7832 2.001953,2.00195 45.304688,47.52344 17.626961,-16.80469 -16.347664,-17.14844 H 189.23047 V 101.20508 H 89.794921 L 115.15625,74.601563 Z m 292.486331,2.242188 -17.6289,16.804687 25.36132,26.60352 h -99.43554 v 26.69531 h 95.60547 l -16.34766,17.14844 17.62695,16.80469 45.30469,-47.52344 2.00195,-2.00195 -7.7832,-7.78321 -0.0723,0.0723 z" />
</svg>
