<?xml version="1.0" encoding="UTF-8" standalone="no"?>
<!-- Created with Inkscape (http://www.inkscape.org/) -->

<svg
   width="397.46289"
   height="321.61166"
   viewBox="0 0 397.46289 321.61166"
   version="1.1"
   id="svg1"
   xmlns="http://www.w3.org/2000/svg"
   xmlns:svg="http://www.w3.org/2000/svg">
  <defs
     id="defs1" />
  <path
     id="path1"
     style="fill:#000000;stroke-width:0.640574"
     d="M 52.488276,0 7.8554631,46.820312 7.7832031,46.748052 0,54.531252 2.001953,56.533202 47.306635,104.05664 64.933588,87.251952 48.585932,70.103512 H 144.1914 V 43.408202 H 44.755854 L 70.117182,16.804688 Z M 344.97461,2.242188 327.3457,19.046875 352.70703,45.650392 h -99.43555 v 26.69531 h 95.60547 l -16.34766,17.14844 17.62696,16.804688 45.30468,-47.523438 2.00196,-2.00195 -7.78321,-7.78321 -0.0723,0.07227 z M 200.6289,17.648438 a 43.791225,43.791225 0 0 0 -43.79101,43.791014 43.791225,43.791225 0 0 0 25.16796,39.632808 v 86.57618 l -0.15429,16.32421 c -27.21522,-21.68068 -47.85311,-51.95734 -71.98828,-45.80859 -8.44683,7.75876 -11.189974,20.38262 -6.18164,28.44922 l -0.004,0.006 c 14.63505,8.96314 36.86025,42.39025 53.26758,74.10547 h 0.16406 a 94.13942,65.889626 0 0 0 42.21094,50.08203 94.13942,65.889626 0 0 0 96.37304,2.89648 94.13942,65.889626 0 0 0 49.41407,-57.08203 c 5.79654,-26.56514 5.9082,-60.39278 5.9082,-87.53125 v -0.0156 -0.0137 -0.44532 h -0.006 c -0.26781,-9.98663 -9.02863,-17.95341 -19.74414,-17.95312 -10.71507,2.9e-4 -19.4744,7.96691 -19.74219,17.95312 h -0.006 v 0.45899 12.86133 h -3.5664 v -40.75782 -0.0137 -0.0137 -0.44727 h -0.006 c -0.2678,-9.98663 -9.02862,-17.95147 -19.74414,-17.95117 -10.71507,3e-4 -19.47635,7.96495 -19.74414,17.95117 h -0.006 v 0.46094 40.77149 h -4.76172 v -61.07032 -0.0137 -0.0137 -0.44727 h -0.006 c -0.26783,-9.98764 -9.03145,-17.95288 -19.74805,-17.95117 -10.71506,3e-4 -19.47439,7.96496 -19.74219,17.95117 h -0.006 v 0.46094 61.08399 h -2.68165 V 99.933588 A 43.791225,43.791225 0 0 0 244.41992,61.439452 43.791225,43.791225 0 0 0 200.6289,17.648438 Z m 0.65821,6.277343 a 37.234249,37.234249 0 0 1 37.23437,37.234371 37.234249,37.234249 0 0 1 -17.01563,31.26758 v -26.74609 -0.01563 -0.01367 -0.44726 h -0.006 c -0.26782,-9.98721 -9.02996,-17.95229 -19.7461,-17.95118 -10.71506,2.9e-4 -19.47439,7.96497 -19.74219,17.95118 h -0.006 v 0.46093 27.34766 a 37.234249,37.234249 0 0 1 -17.95312,-31.85352 37.234249,37.234249 0 0 1 37.23438,-37.234371 z" />
</svg>
