<?xml version="1.0" encoding="UTF-8" standalone="no"?>
<!-- Created with Inkscape (http://www.inkscape.org/) -->

<svg
   width="200"
   height="50"
   viewBox="0 0 52.916665 13.229167"
   version="1.1"
   id="svg1"
   xmlns="http://www.w3.org/2000/svg"
   xmlns:svg="http://www.w3.org/2000/svg">
  <defs
     id="defs1" />
  <g
     id="layer1">
    <g
       id="g16"
       transform="matrix(0.26458333,0,0,0.26458333,-10.563034,-29.596953)">
		<g
   id="g3">
			<path
   style="fill:#1d262d"
   d="m 58.861,157.351 c 4.178,0.019 8.26,-0.712 12.261,-1.706 4.002,-1.016 7.94,-2.305 11.924,-3.53 3.993,-1.197 8.06,-2.304 12.243,-2.833 4.164,-0.551 8.481,-0.476 12.506,0.675 -4.141,-0.573 -8.284,-0.243 -12.327,0.482 -4.048,0.749 -8.02,1.894 -11.987,3.11 -3.978,1.191 -7.98,2.434 -12.105,3.233 -4.108,0.821 -8.375,1.17 -12.515,0.569 z"
   id="path2" />

		</g>

		<g
   id="g4">
			<path
   style="fill:#1d262d"
   d="m 74.737,140.936 c 2.997,0.489 5.99,0.453 8.965,0.248 2.977,-0.227 5.949,-0.633 8.955,-0.983 3.01,-0.322 6.069,-0.565 9.135,-0.355 3.055,0.185 6.138,0.87 8.826,2.298 -2.907,-0.882 -5.893,-1.137 -8.861,-1.129 -2.974,0.031 -5.947,0.329 -8.934,0.675 -2.993,0.318 -6.02,0.667 -9.079,0.658 -3.049,0.015 -6.154,-0.357 -9.007,-1.412 z"
   id="path3" />

		</g>

		<g
   id="g15">
			<g
   id="g5">
				<path
   style="fill:#1d262d"
   d="m 97.923,146.617 c -4.665,0.215 -9.276,1.069 -13.792,2.212 -4.528,1.116 -8.972,2.54 -13.484,3.766 -4.493,1.292 -9.061,2.388 -13.697,3.173 -4.641,0.732 -9.364,1.107 -14.06,0.817 l 0.152,-0.574 c 3.509,1.822 7.355,3.027 11.303,3.494 1.972,0.242 3.958,0.344 5.945,0.346 1.987,-0.03 3.97,-0.178 5.944,-0.392 7.907,-0.92 15.536,-3.289 23.282,-5.284 3.874,-1.002 7.776,-1.983 11.76,-2.618 1.992,-0.313 3.995,-0.564 6.025,-0.699 2.024,-0.133 4.047,-0.123 6.064,-0.064 2.017,0.065 4.027,0.225 6.029,0.435 1.999,0.237 3.989,0.535 5.969,0.88 3.96,0.694 7.872,1.636 11.709,2.826 l -0.358,0.81 c -2.844,-1.705 -5.943,-3.09 -9.072,-4.293 -3.143,-1.193 -6.365,-2.188 -9.644,-2.957 -3.277,-0.779 -6.617,-1.285 -9.97,-1.614 -3.358,-0.304 -6.735,-0.397 -10.105,-0.264 z m -0.007,-0.15 c 6.752,-0.344 13.546,0.234 20.162,1.663 3.313,0.69 6.581,1.61 9.779,2.733 3.196,1.143 6.325,2.436 9.325,4.121 0.214,0.12 0.29,0.391 0.17,0.605 -0.101,0.179 -0.307,0.262 -0.497,0.213 l -0.03,-0.008 c -7.7,-1.971 -15.604,-3.187 -23.509,-3.477 -1.975,-0.049 -3.952,-0.05 -5.915,0.088 -1.956,0.137 -3.919,0.394 -5.871,0.713 -3.903,0.655 -7.788,1.5 -11.657,2.461 -7.726,1.91 -15.524,4.052 -23.562,4.656 -4.006,0.303 -8.043,0.283 -12.028,-0.245 -1.987,-0.3 -3.958,-0.701 -5.897,-1.24 -1.929,-0.574 -3.809,-1.311 -5.622,-2.199 -0.15,-0.074 -0.212,-0.255 -0.139,-0.405 0.053,-0.109 0.163,-0.171 0.277,-0.169 h 0.014 c 4.647,0.085 9.276,-0.483 13.825,-1.392 4.564,-0.855 9.056,-2.078 13.589,-3.188 4.515,-1.177 9.078,-2.248 13.673,-3.152 4.598,-0.873 9.24,-1.558 13.913,-1.778 z"
   id="path4" />

			</g>

			<g
   id="g6">
				<path
   style="fill:#1d262d"
   d="m 103.961,138.355 c -3.355,-0.465 -6.757,-0.443 -10.125,-0.188 -3.373,0.23 -6.726,0.692 -10.104,1.008 -3.377,0.309 -6.785,0.526 -10.205,0.422 -3.415,-0.119 -6.842,-0.505 -10.154,-1.363 l 0.254,-0.537 c 2.229,1.792 4.82,3.144 7.568,3.992 1.372,0.429 2.773,0.762 4.188,1.021 1.42,0.232 2.852,0.38 4.286,0.478 5.752,0.345 11.49,-0.369 17.283,-0.776 2.898,-0.211 5.816,-0.399 8.752,-0.337 1.467,0.035 2.936,0.114 4.413,0.286 1.47,0.18 2.917,0.463 4.353,0.779 5.734,1.301 11.22,3.447 16.367,6.202 l -0.499,0.731 c -1.785,-1.588 -3.8,-3.003 -5.866,-4.276 -2.076,-1.271 -4.227,-2.432 -6.463,-3.411 -2.234,-0.979 -4.528,-1.839 -6.882,-2.496 -2.345,-0.696 -4.753,-1.144 -7.166,-1.535 z m 0.021,-0.149 c 2.423,0.372 4.842,0.805 7.202,1.482 2.379,0.606 4.694,1.44 6.973,2.354 2.284,0.908 4.493,2.003 6.637,3.216 2.142,1.227 4.205,2.557 6.145,4.153 0.189,0.156 0.216,0.435 0.061,0.624 -0.13,0.158 -0.346,0.203 -0.524,0.123 l -0.036,-0.016 c -5.248,-2.361 -10.72,-4.25 -16.3,-5.487 -5.573,-1.261 -11.32,-1.095 -17.092,-0.798 -5.759,0.328 -11.621,0.788 -17.444,0.108 -2.902,-0.337 -5.781,-0.902 -8.558,-1.811 -1.379,-0.481 -2.734,-1.033 -4.047,-1.679 -1.297,-0.677 -2.558,-1.427 -3.744,-2.298 -0.135,-0.099 -0.164,-0.288 -0.065,-0.423 0.071,-0.097 0.19,-0.139 0.301,-0.118 l 0.018,0.004 c 3.302,0.647 6.671,0.827 10.028,0.755 3.359,-0.055 6.72,-0.291 10.099,-0.499 6.752,-0.378 13.614,-0.591 20.346,0.31 z"
   id="path5" />

			</g>

			<g
   id="g7">
				<path
   style="fill:#1d262d"
   d="m 181.936,146.467 c 4.673,0.22 9.314,0.904 13.914,1.779 4.595,0.903 9.158,1.974 13.673,3.151 4.533,1.11 9.025,2.333 13.589,3.188 4.549,0.909 9.178,1.477 13.825,1.392 h 0.013 c 0.167,-0.003 0.305,0.13 0.308,0.297 0.002,0.121 -0.067,0.227 -0.169,0.277 -1.813,0.888 -3.693,1.624 -5.622,2.199 -1.939,0.539 -3.91,0.94 -5.897,1.24 -3.985,0.528 -8.023,0.547 -12.028,0.245 -8.038,-0.604 -15.835,-2.746 -23.562,-4.656 -3.87,-0.961 -7.754,-1.806 -11.658,-2.461 -1.953,-0.319 -3.916,-0.576 -5.871,-0.713 -1.962,-0.138 -3.94,-0.136 -5.915,-0.088 -7.905,0.29 -15.809,1.506 -23.509,3.477 l -0.03,0.008 c -0.238,0.061 -0.48,-0.083 -0.541,-0.32 -0.051,-0.199 0.042,-0.401 0.213,-0.497 2.999,-1.685 6.128,-2.978 9.325,-4.121 3.198,-1.124 6.466,-2.044 9.779,-2.733 6.616,-1.429 13.411,-2.007 20.163,-1.664 z m -0.007,0.15 c -3.37,-0.133 -6.747,-0.04 -10.103,0.264 -3.353,0.329 -6.692,0.835 -9.97,1.614 -3.279,0.768 -6.502,1.764 -9.644,2.957 -3.13,1.203 -6.229,2.588 -9.072,4.293 l -0.358,-0.81 c 3.837,-1.19 7.749,-2.132 11.709,-2.826 1.98,-0.345 3.97,-0.642 5.969,-0.88 2.002,-0.211 4.012,-0.37 6.029,-0.435 2.017,-0.058 4.039,-0.069 6.064,0.064 2.03,0.135 4.033,0.386 6.025,0.699 3.984,0.635 7.886,1.616 11.76,2.618 7.745,1.995 15.374,4.364 23.281,5.284 1.974,0.215 3.957,0.362 5.944,0.392 1.986,-0.002 3.973,-0.104 5.945,-0.346 3.948,-0.467 7.794,-1.672 11.303,-3.494 l 0.152,0.574 c -4.695,0.29 -9.419,-0.085 -14.06,-0.817 -4.636,-0.786 -9.204,-1.882 -13.697,-3.173 -4.512,-1.225 -8.956,-2.65 -13.484,-3.766 -4.517,-1.143 -9.128,-1.997 -13.793,-2.212 z"
   id="path6" />

			</g>

			<g
   id="g8">
				<path
   style="fill:#1d262d"
   d="m 220.991,156.932 c -4.14,0.602 -8.407,0.252 -12.515,-0.568 -4.126,-0.799 -8.128,-2.042 -12.105,-3.233 -3.966,-1.217 -7.939,-2.362 -11.987,-3.111 -4.043,-0.725 -8.187,-1.055 -12.327,-0.482 4.025,-1.15 8.342,-1.226 12.506,-0.675 4.184,0.528 8.25,1.636 12.243,2.833 3.984,1.225 7.922,2.513 11.924,3.53 4.001,0.994 8.083,1.724 12.261,1.706 z"
   id="path7" />

			</g>

			<g
   id="g9">
				<path
   style="fill:#1d262d"
   d="m 175.87,138.206 c 6.731,-0.901 13.594,-0.688 20.347,-0.309 3.378,0.208 6.739,0.444 10.098,0.499 3.357,0.072 6.726,-0.107 10.028,-0.755 l 0.017,-0.003 c 0.164,-0.032 0.323,0.075 0.355,0.239 0.023,0.118 -0.027,0.234 -0.118,0.302 -1.186,0.871 -2.447,1.621 -3.744,2.298 -1.313,0.646 -2.667,1.197 -4.047,1.679 -2.777,0.909 -5.657,1.473 -8.558,1.811 -5.823,0.68 -11.685,0.22 -17.444,-0.108 -5.772,-0.297 -11.52,-0.462 -17.092,0.798 -5.579,1.236 -11.052,3.126 -16.3,5.487 l -0.036,0.016 c -0.223,0.101 -0.486,0.001 -0.587,-0.223 -0.084,-0.187 -0.028,-0.401 0.123,-0.525 1.94,-1.596 4.004,-2.926 6.145,-4.153 2.143,-1.213 4.353,-2.308 6.637,-3.216 2.279,-0.914 4.594,-1.748 6.973,-2.354 2.361,-0.678 4.78,-1.111 7.203,-1.483 z m 0.021,0.149 c -2.413,0.391 -4.821,0.839 -7.166,1.536 -2.354,0.657 -4.648,1.517 -6.882,2.496 -2.236,0.98 -4.388,2.141 -6.463,3.411 -2.066,1.273 -4.081,2.689 -5.866,4.276 l -0.499,-0.731 c 5.147,-2.755 10.633,-4.901 16.367,-6.202 1.436,-0.316 2.882,-0.599 4.353,-0.779 1.477,-0.173 2.946,-0.251 4.413,-0.286 2.936,-0.063 5.855,0.126 8.752,0.337 5.793,0.408 11.531,1.122 17.283,0.776 1.434,-0.099 2.866,-0.246 4.286,-0.478 1.414,-0.259 2.816,-0.592 4.188,-1.021 2.748,-0.848 5.339,-2.2 7.568,-3.992 l 0.254,0.537 c -3.312,0.858 -6.739,1.243 -10.154,1.363 -3.42,0.104 -6.828,-0.113 -10.205,-0.422 -3.378,-0.317 -6.73,-0.778 -10.104,-1.008 -3.369,-0.256 -6.771,-0.279 -10.125,0.187 z"
   id="path8" />

			</g>

			<g
   id="g10">
				<path
   style="fill:#1d262d"
   d="m 205.115,140.516 c -2.853,1.055 -5.958,1.427 -9.007,1.413 -3.06,0.009 -6.086,-0.34 -9.079,-0.658 -2.987,-0.345 -5.96,-0.644 -8.934,-0.674 -2.968,-0.008 -5.953,0.247 -8.861,1.129 2.688,-1.429 5.771,-2.114 8.826,-2.298 3.067,-0.211 6.125,0.033 9.135,0.355 3.006,0.35 5.978,0.755 8.955,0.983 2.975,0.203 5.968,0.239 8.965,-0.25 z"
   id="path9" />

			</g>

			<g
   id="g12">
				<g
   id="g11">
					<path
   style="fill:#1d262d"
   d="m 135.97,132.746 c 0.089,-1.571 0.251,-3.136 0.401,-4.707 0.157,-1.571 0.377,-3.138 0.641,-4.699 0.518,-3.127 1.395,-6.176 2.466,-9.138 l 0.017,-0.048 c 0.111,-0.308 0.451,-0.467 0.759,-0.356 0.098,0.035 0.183,0.096 0.247,0.17 1.111,1.289 1.662,2.855 1.997,4.375 0.327,1.535 0.502,3.055 0.738,4.575 0.427,3.043 0.822,6.095 0.971,9.185 0.169,3.085 -0.034,6.228 -0.677,9.279 -0.311,1.528 -0.715,3.035 -1.182,4.521 -0.124,0.366 -0.225,0.739 -0.401,1.139 l -0.44,1.056 -0.412,1.044 -0.177,0.505 c -0.023,0.075 -0.055,0.164 -0.066,0.215 -0.008,0.029 -0.019,0.073 -0.013,0.045 l -0.005,-0.017 c 0.016,-0.132 -0.076,-0.385 -0.211,-0.486 l -1.239,0.984 c -0.765,-1.256 -1.691,-2.501 -2.332,-3.975 -0.669,-1.492 -0.878,-3.065 -1.019,-4.578 -0.13,-1.512 -0.25,-3.037 -0.227,-4.556 0.012,-1.517 0.056,-3.027 0.164,-4.533 z m 0.15,0.009 c -0.078,1.502 -0.072,3.011 0.094,4.504 0.156,1.494 0.445,2.96 0.774,4.427 0.335,1.455 0.717,2.878 1.357,4.114 0.659,1.253 1.529,2.45 2.383,3.733 0.243,0.365 0.144,0.858 -0.221,1.1 -0.321,0.213 -0.741,0.163 -1.002,-0.101 l -0.015,-0.016 c -0.146,-0.147 -0.252,-0.446 -0.245,-0.625 l 0.012,-0.16 c 0.012,-0.124 0.028,-0.173 0.042,-0.237 0.029,-0.136 0.061,-0.228 0.092,-0.337 0.065,-0.203 0.134,-0.392 0.204,-0.579 l 0.435,-1.092 0.448,-1.064 c 0.135,-0.301 0.243,-0.667 0.38,-1.021 0.499,-1.423 0.937,-2.865 1.286,-4.33 0.696,-2.931 1.093,-5.925 1.212,-8.967 0.115,-3.039 -0.066,-6.105 -0.589,-9.115 -0.261,-1.501 -0.573,-3.012 -1.034,-4.44 -0.456,-1.422 -1.11,-2.783 -2.113,-3.741 l 1.023,-0.233 c -0.859,3.014 -1.778,5.99 -2.687,8.982 -0.449,1.498 -0.848,3.012 -1.184,4.543 -0.342,1.533 -0.544,3.091 -0.652,4.655 z"
   id="path10" />

				</g>

			</g>

			<g
   id="g14">
				<g
   id="g13">
					<path
   style="fill:#1d262d"
   d="m 137.817,136.071 0.164,-2.553 c 0.055,-0.855 0.109,-1.718 0.217,-2.573 0.19,-1.719 0.653,-3.382 1.281,-4.969 l 0.032,-0.082 c 0.118,-0.298 0.455,-0.444 0.753,-0.326 0.096,0.038 0.177,0.1 0.238,0.175 0.625,0.772 0.898,1.665 1.051,2.507 0.146,0.853 0.208,1.676 0.331,2.501 0.209,1.65 0.471,3.295 0.612,4.975 0.163,1.676 0.1,3.407 -0.243,5.081 -0.159,0.839 -0.369,1.668 -0.614,2.484 -0.064,0.2 -0.117,0.403 -0.222,0.642 l -0.236,0.568 -0.217,0.553 -0.089,0.255 -0.03,0.088 c -0.003,0.007 -0.008,0.03 0,-0.02 l -0.001,-0.05 c 0.014,-0.142 -0.081,-0.407 -0.219,-0.518 l -1.239,0.984 c -0.393,-0.672 -0.905,-1.355 -1.247,-2.202 -0.368,-0.864 -0.441,-1.748 -0.473,-2.578 -0.033,-0.826 -0.029,-1.665 0.007,-2.489 0.04,-0.823 0.08,-1.639 0.144,-2.453 z m 0.15,0.009 c -0.037,0.81 -0.017,1.624 0.106,2.425 0.108,0.802 0.333,1.578 0.547,2.36 0.225,0.772 0.471,1.506 0.81,2.114 0.36,0.625 0.817,1.261 1.298,1.96 0.248,0.36 0.157,0.853 -0.203,1.101 -0.314,0.216 -0.728,0.175 -0.994,-0.077 l -0.042,-0.04 c -0.144,-0.136 -0.246,-0.426 -0.237,-0.593 l 0.008,-0.127 c 0.011,-0.102 0.021,-0.129 0.029,-0.172 l 0.055,-0.21 0.116,-0.33 0.24,-0.6 0.244,-0.576 c 0.063,-0.14 0.124,-0.335 0.2,-0.524 0.277,-0.753 0.521,-1.517 0.718,-2.293 0.381,-1.555 0.642,-3.137 0.777,-4.769 0.123,-1.629 0.074,-3.287 -0.23,-4.904 -0.306,-1.585 -0.76,-3.323 -1.794,-4.24 l 1.023,-0.233 c -0.415,1.639 -0.921,3.229 -1.501,4.813 -0.277,0.795 -0.558,1.596 -0.768,2.416 -0.217,0.817 -0.341,1.656 -0.402,2.499 z"
   id="path12" />

				</g>

			</g>

		</g>

	</g>
  </g>
</svg>
