<?xml version="1.0" encoding="UTF-8" standalone="no"?>
<!-- Created with Inkscape (http://www.inkscape.org/) -->

<svg
   width="88"
   height="88"
   viewBox="0 0 23.283332 23.283334"
   version="1.1"
   id="svg1"
   xml:space="preserve"
   sodipodi:docname="myfacebookshare.svg"
   inkscape:version="1.4.2 (f4327f4, 2025-05-13)"
   xmlns:inkscape="http://www.inkscape.org/namespaces/inkscape"
   xmlns:sodipodi="http://sodipodi.sourceforge.net/DTD/sodipodi-0.dtd"
   xmlns="http://www.w3.org/2000/svg"
   xmlns:svg="http://www.w3.org/2000/svg"><sodipodi:namedview
     id="namedview1"
     pagecolor="#ffffff"
     bordercolor="#111111"
     borderopacity="1"
     inkscape:showpageshadow="0"
     inkscape:pageopacity="0"
     inkscape:pagecheckerboard="1"
     inkscape:deskcolor="#d1d1d1"
     inkscape:zoom="9.1704545"
     inkscape:cx="44"
     inkscape:cy="17.828996"
     inkscape:window-width="1920"
     inkscape:window-height="1009"
     inkscape:window-x="-8"
     inkscape:window-y="-8"
     inkscape:window-maximized="1"
     inkscape:current-layer="svg1" /><defs
     id="defs1" /><g
     id="layer1"><path
       id="use22"
       style="display:inline;fill:#0866ff;fill-opacity:1;stroke-width:0.305296"
       d="M 3.0287557 4.8643026 C 1.9207557 4.8643026 1.0288779 5.7561805 1.0288778 6.8641805 L 1.0288778 7.1468506 L 1.0288778 20.77806 C 1.0288773 21.88606 1.9207564 22.777938 3.0287557 22.777938 L 12.61215 22.777938 L 16.942635 22.777938 C 17.825994 22.777938 18.571914 22.211256 18.838127 21.419881 L 18.838127 21.419364 C 18.905727 21.218247 18.942513 21.002527 18.942513 20.77806 L 18.942513 6.8641805 C 18.942513 5.7561809 18.050634 4.8643028 16.942635 4.8643026 L 6.5701416 4.8643026 L 3.0287557 4.8643026 z " /><text
       xml:space="preserve"
       style="font-weight:bold;font-size:4.9389px;font-family:Arial;-inkscape-font-specification:'Arial Bold';text-align:start;writing-mode:lr-tb;direction:ltr;text-anchor:start;display:inline;fill:#0866ff;fill-opacity:1;stroke-width:0.264583"
       x="2.6040056"
       y="8.4397659"
       id="text22"><tspan
         id="tspan22"
         style="fill:#0866ff;fill-opacity:1;stroke-width:0.264583"
         x="1.1540686"
         y="4.1834984">SHARE</tspan></text><path
       d="m 17.080291,13.72223 c 0,-3.8762903 -3.142345,-7.0186359 -7.018624,-7.0186359 -3.8762892,0 -7.0186345,3.1423456 -7.0186345,7.0186359 0,3.503194 2.5666087,6.406831 5.9219699,6.933361 V 15.751049 H 7.1829317 V 13.72223 h 1.7820707 v -1.546293 c 0,-1.759051 1.0478286,-2.7306873 2.6510386,-2.7306873 0.767903,0 1.57111,0.13708 1.57111,0.13708 v 1.7272413 h -0.885036 c -0.871887,0 -1.143784,0.541027 -1.143784,1.096079 v 1.31658 h 1.946571 l -0.311181,2.028819 h -1.6354 v 4.904542 c 3.355362,-0.52653 5.92197,-3.430167 5.92197,-6.933361"
       fill="#ffffff"
       id="path1"
       style="display:inline;stroke-width:0.0102812" /></g></svg>
