<?xml version="1.0" encoding="UTF-8" standalone="no"?>
<!-- Created with Inkscape (http://www.inkscape.org/) -->

<svg
   width="88"
   height="88"
   viewBox="0 0 23.283332 23.283334"
   version="1.1"
   id="svg1"
   xml:space="preserve"
   inkscape:version="1.4.2 (f4327f4, 2025-05-13)"
   sodipodi:docname="twittershare.svg"
   xmlns:inkscape="http://www.inkscape.org/namespaces/inkscape"
   xmlns:sodipodi="http://sodipodi.sourceforge.net/DTD/sodipodi-0.dtd"
   xmlns="http://www.w3.org/2000/svg"
   xmlns:svg="http://www.w3.org/2000/svg"><sodipodi:namedview
     id="namedview1"
     pagecolor="#ffffff"
     bordercolor="#111111"
     borderopacity="1"
     inkscape:showpageshadow="0"
     inkscape:pageopacity="0"
     inkscape:pagecheckerboard="1"
     inkscape:deskcolor="#d1d1d1"
     inkscape:document-units="mm"
     inkscape:zoom="5.6568543"
     inkscape:cx="90.951609"
     inkscape:cy="54.889164"
     inkscape:window-width="1920"
     inkscape:window-height="975"
     inkscape:window-x="-8"
     inkscape:window-y="26"
     inkscape:window-maximized="1"
     inkscape:current-layer="layer1" /><defs
     id="defs1" /><g
     inkscape:label="Layer 1"
     inkscape:groupmode="layer"
     id="layer1"><path
       id="rect15-7"
       style="display:inline;fill:#1da1f2;fill-opacity:1;stroke-width:0.305332"
       d="M 2.3831037,7.7682401 2.3829518,28.373426 C 2.5570462,28.24831 2.7150785,28.093466 2.8487554,27.91022 L 11.134883,16.551477 c 0.659847,-0.904527 0.47425,-2.148082 -0.416168,-2.788451 z"
       transform="matrix(0.81616833,-0.5778142,0.5953894,0.80343728,0,0)"
       inkscape:label="TopRight" /><path
       id="path21"
       style="display:inline;fill:#1b94de;fill-opacity:1;stroke-width:0.305332"
       d="M 2.3831037,7.7682401 -0.46284795,5.7214951 C -1.3532661,5.0811262 -2.6011426,5.293759 -3.2609895,6.1982865 l -0.1683384,0.2307607 -1.509e-4,19.4551588 3.48009264,2.502805 c 0.70989071,0.510538 1.64680746,0.479029 2.33203026,-0.01316 z"
       transform="matrix(0.81616833,-0.5778142,0.5953894,0.80343728,0,0)"
       inkscape:label="Middle" /><path
       id="path22"
       style="display:inline;fill:#1989cd;fill-opacity:1;stroke-width:0.305332"
       d="M -3.4293279,6.4290472 -11.547117,17.557029 c -0.659847,0.904527 -0.47425,2.148083 0.416168,2.788451 l 7.7014702,5.538726 z"
       transform="matrix(0.81616832,-0.57781421,0.5953894,0.80343728,0,0)"
       inkscape:label="BottomLeft" /><path
       id="rect4"
       style="display:inline;fill:#ffffff;stroke-width:0.264583"
       d="m -2.0685342,9.3694508 -1.18e-5,7.4360342 -6.3569867,1.150633 1.1698692,0.875856 5.186901,-0.938906 1.535e-4,4.822343 3.04587943,2.280385 2.5369e-4,-7.516547 6.26987328,-1.13516 -1.1690418,-0.875236 -5.10092467,0.923227 -8.572e-5,-4.742245 z m 1.06942338,1.7463792 0.90677493,0.681465 -7.53e-6,11.471345 -0.90677493,-0.681465 z"
       transform="rotate(-36.821411)"
       inkscape:label="X" /><text
       xml:space="preserve"
       style="font-weight:bold;font-size:4.9389px;font-family:Arial;-inkscape-font-specification:'Arial Bold';text-align:start;writing-mode:lr-tb;direction:ltr;text-anchor:start;fill:#1da1f2;fill-opacity:1;stroke-width:0.264583"
       x="1.4499371"
       y="4.2562671"
       id="text22"><tspan
         sodipodi:role="line"
         id="tspan22"
         style="stroke-width:0.264583"
         x="1.4499371"
         y="4.2562671">SHARE</tspan></text></g></svg>
